<?xml version="1.0" standalone="no"?>
<!DOCTYPE svg PUBLIC "-//W3C//DTD SVG 20010904//EN"
 "http://www.w3.org/TR/2001/REC-SVG-20010904/DTD/svg10.dtd">
<svg version="1.0" xmlns="http://www.w3.org/2000/svg"
 width="318.000000pt" height="159.000000pt" viewBox="0 0 318.000000 159.000000"
 preserveAspectRatio="xMidYMid meet">

<g transform="translate(0.000000,159.000000) scale(0.100000,-0.100000)"
fill="#000000" stroke="none">
<path d="M230 980 l0 -250 115 0 115 0 0 35 0 35 -75 0 -75 0 0 215 0 215 -40
0 -40 0 0 -250z"/>
<path d="M2240 980 l0 -250 35 0 35 0 0 250 0 250 -35 0 -35 0 0 -250z"/>
<path d="M580 1048 c-62 -32 -90 -77 -90 -145 0 -107 60 -173 156 -173 36 0
59 6 77 20 14 11 28 20 31 20 3 0 6 -9 6 -20 0 -16 7 -20 35 -20 l35 0 0 165
0 165 -35 0 c-29 0 -35 -4 -35 -20 0 -21 0 -21 -28 0 -44 33 -99 36 -152 8z
m137 -63 c27 -19 46 -77 38 -115 -9 -41 -58 -80 -102 -80 -83 0 -125 111 -67
179 21 26 33 31 68 31 23 0 51 -7 63 -15z"/>
<path d="M1214 1051 c-58 -27 -87 -72 -92 -142 -4 -49 0 -65 21 -102 44 -74
143 -101 215 -57 32 20 32 20 32 0 0 -16 7 -20 35 -20 l35 0 0 165 0 165 -35
0 c-29 0 -35 -4 -35 -20 0 -21 0 -21 -28 0 -41 30 -98 35 -148 11z m127 -61
c25 -14 49 -62 49 -101 0 -45 -56 -99 -103 -99 -89 0 -132 133 -60 190 28 22
82 26 114 10z"/>
<path d="M1954 1051 c-56 -26 -87 -72 -92 -136 -9 -113 43 -176 153 -183 65
-4 104 8 138 45 16 19 16 21 -2 37 -19 17 -21 17 -51 -6 -47 -34 -114 -32
-146 5 -45 53 -37 57 100 57 69 0 127 4 131 9 3 6 1 29 -4 52 -25 111 -129
166 -227 120z m130 -63 c13 -13 27 -33 31 -45 6 -23 5 -23 -89 -23 -61 0 -96
4 -96 11 0 16 21 53 39 66 27 21 87 16 115 -9z"/>
<path d="M900 895 l0 -165 35 0 35 0 0 130 0 130 65 0 65 0 0 35 0 35 -100 0
-100 0 0 -165z"/>
<path d="M1510 1055 c0 -3 28 -78 62 -166 l61 -160 46 3 45 3 63 160 c35 88
63 161 63 163 0 2 -17 2 -37 0 l-37 -3 -46 -117 c-25 -64 -47 -119 -50 -122
-3 -3 -27 51 -53 120 l-48 124 -35 0 c-19 0 -34 -2 -34 -5z"/>
<path d="M325 646 c-121 -54 -140 -221 -33 -298 32 -22 39 -23 283 -26 229 -2
253 -1 285 16 64 35 100 112 86 187 -8 43 -59 103 -103 121 -46 20 -475 19
-518 0z m525 -31 c48 -28 84 -100 74 -150 -3 -20 -18 -50 -31 -66 -48 -57 -61
-59 -311 -59 -221 0 -230 1 -262 23 -54 36 -75 72 -74 126 1 60 31 106 88 132
37 17 63 19 261 17 200 -3 223 -5 255 -23z"/>
<path d="M407 582 c-35 -38 -10 -112 36 -112 22 0 21 -6 -4 -41 -20 -29 -20
-29 -1 -29 20 0 71 70 86 118 7 21 -8 61 -28 74 -21 14 -73 8 -89 -10z m81
-44 c5 -39 -30 -56 -58 -28 -28 28 -11 63 28 58 21 -2 28 -9 30 -30z"/>
<path d="M666 581 c-33 -37 -33 -132 0 -165 24 -24 80 -20 98 6 29 41 17 147
-18 170 -21 14 -63 8 -80 -11z m72 -23 c18 -18 15 -103 -4 -122 -21 -21 -30
-20 -48 6 -18 26 -21 80 -6 109 12 21 40 25 58 7z"/>
<path d="M571 430 c-16 -9 -6 -30 15 -30 15 0 20 25 6 34 -4 2 -14 1 -21 -4z"/>
</g>
</svg>
